<mxfile host="app.diagrams.net" agent="Mozilla/5.0 (Windows NT 10.0; Win64; x64) AppleWebKit/537.36 (KHTML, like Gecko) Chrome/129.0.0.0 Safari/537.36" version="24.7.16">
  <diagram name="Page-1" id="_tdQ-r0En8afI5xzQXh5">
    <mxGraphModel grid="1" page="1" gridSize="10" guides="1" tooltips="1" connect="1" arrows="1" fold="1" pageScale="1" pageWidth="827" pageHeight="1169" math="0" shadow="0">
      <root>
        <mxCell id="0" />
        <mxCell id="1" parent="0" />
        <mxCell id="Vkdyl79bWL9sTuB0Er7Z-1" value="Mulai" style="whiteSpace=wrap;strokeWidth=2;" vertex="1" parent="1">
          <mxGeometry x="164" y="20" width="99" height="49" as="geometry" />
        </mxCell>
        <mxCell id="Vkdyl79bWL9sTuB0Er7Z-2" value="Memeriksa Ketersediaan Buku" style="whiteSpace=wrap;strokeWidth=2;" vertex="1" parent="1">
          <mxGeometry x="96" y="142" width="235" height="67" as="geometry" />
        </mxCell>
        <mxCell id="Vkdyl79bWL9sTuB0Er7Z-3" value="Pinjam Buku" style="whiteSpace=wrap;strokeWidth=2;" vertex="1" parent="1">
          <mxGeometry x="20" y="282" width="149" height="49" as="geometry" />
        </mxCell>
        <mxCell id="Vkdyl79bWL9sTuB0Er7Z-4" value="Tunggu Hingga Tersedia" style="whiteSpace=wrap;strokeWidth=2;" vertex="1" parent="1">
          <mxGeometry x="219" y="282" width="228" height="49" as="geometry" />
        </mxCell>
        <mxCell id="Vkdyl79bWL9sTuB0Er7Z-5" value="Mengembalikan Buku" style="whiteSpace=wrap;strokeWidth=2;" vertex="1" parent="1">
          <mxGeometry x="108" y="381" width="211" height="49" as="geometry" />
        </mxCell>
        <mxCell id="Vkdyl79bWL9sTuB0Er7Z-6" value="Akhir" style="whiteSpace=wrap;strokeWidth=2;" vertex="1" parent="1">
          <mxGeometry x="164" y="503" width="99" height="49" as="geometry" />
        </mxCell>
        <mxCell id="Vkdyl79bWL9sTuB0Er7Z-7" value="Memilih Buku" style="curved=1;startArrow=none;endArrow=block;exitX=0.5;exitY=1;entryX=0.5;entryY=0;rounded=0;" edge="1" parent="1" source="Vkdyl79bWL9sTuB0Er7Z-1" target="Vkdyl79bWL9sTuB0Er7Z-2">
          <mxGeometry relative="1" as="geometry">
            <Array as="points" />
          </mxGeometry>
        </mxCell>
        <mxCell id="Vkdyl79bWL9sTuB0Er7Z-8" value="Tersedia" style="curved=1;startArrow=none;endArrow=block;exitX=0.26;exitY=0.99;entryX=0.5;entryY=-0.01;rounded=0;" edge="1" parent="1" source="Vkdyl79bWL9sTuB0Er7Z-2" target="Vkdyl79bWL9sTuB0Er7Z-3">
          <mxGeometry relative="1" as="geometry">
            <Array as="points">
              <mxPoint x="94" y="245" />
            </Array>
          </mxGeometry>
        </mxCell>
        <mxCell id="Vkdyl79bWL9sTuB0Er7Z-9" value="Tidak Tersedia" style="curved=1;startArrow=none;endArrow=block;exitX=0.74;exitY=0.99;entryX=0.5;entryY=-0.01;rounded=0;" edge="1" parent="1" source="Vkdyl79bWL9sTuB0Er7Z-2" target="Vkdyl79bWL9sTuB0Er7Z-4">
          <mxGeometry relative="1" as="geometry">
            <Array as="points">
              <mxPoint x="333" y="245" />
            </Array>
          </mxGeometry>
        </mxCell>
        <mxCell id="Vkdyl79bWL9sTuB0Er7Z-10" value="" style="curved=1;startArrow=none;endArrow=block;exitX=0.5;exitY=0.99;entryX=0.22;entryY=-0.01;rounded=0;" edge="1" parent="1" source="Vkdyl79bWL9sTuB0Er7Z-3" target="Vkdyl79bWL9sTuB0Er7Z-5">
          <mxGeometry relative="1" as="geometry">
            <Array as="points">
              <mxPoint x="94" y="356" />
            </Array>
          </mxGeometry>
        </mxCell>
        <mxCell id="Vkdyl79bWL9sTuB0Er7Z-11" value="" style="curved=1;startArrow=none;endArrow=block;exitX=0.5;exitY=0.99;entryX=0.78;entryY=-0.01;rounded=0;" edge="1" parent="1" source="Vkdyl79bWL9sTuB0Er7Z-4" target="Vkdyl79bWL9sTuB0Er7Z-5">
          <mxGeometry relative="1" as="geometry">
            <Array as="points">
              <mxPoint x="333" y="356" />
            </Array>
          </mxGeometry>
        </mxCell>
        <mxCell id="Vkdyl79bWL9sTuB0Er7Z-12" value="Selesai" style="curved=1;startArrow=none;endArrow=block;exitX=0.5;exitY=0.99;entryX=0.5;entryY=-0.01;rounded=0;" edge="1" parent="1" source="Vkdyl79bWL9sTuB0Er7Z-5" target="Vkdyl79bWL9sTuB0Er7Z-6">
          <mxGeometry relative="1" as="geometry">
            <Array as="points" />
          </mxGeometry>
        </mxCell>
      </root>
    </mxGraphModel>
  </diagram>
</mxfile>
